<?xml version="1.0" encoding="UTF-8" standalone="no"?>
<!DOCTYPE svg PUBLIC "-//W3C//DTD SVG 1.1//EN"
 "http://www.w3.org/Graphics/SVG/1.1/DTD/svg11.dtd">
<!-- Generated by graphviz version 2.40.1 (20161225.0304)
 -->
<!-- Title: gocallvis Pages: 1 -->
<svg width="427pt" height="489pt"
 viewBox="0.00 0.00 427.44 488.80" xmlns="http://www.w3.org/2000/svg" xmlns:xlink="http://www.w3.org/1999/xlink">
<g id="graph0" class="graph" transform="scale(1 1) rotate(0) translate(0 488.8)">
<title>gocallvis</title>
<polygon fill="#d3d3d3" stroke="transparent" points="0,0 0,-488.8 427.441,-488.8 427.441,0 0,0"/>
<text text-anchor="middle" x="21.2209" y="-8.2" font-family="Arial" font-size="14.00" fill="#000000">ttms</text>
<g id="clust1" class="cluster">
<title>cluster_focus</title>
<polygon fill="#e6ecfa" stroke="#000000" stroke-width=".5" points="8,-32.8 8,-480.8 422.441,-480.8 422.441,-32.8 8,-32.8"/>
<text text-anchor="middle" x="215.2205" y="-460.6" font-family="Arial" font-size="18.00" fill="#000000">main</text>
</g>
<g id="clust2" class="cluster">
<title>cluster_go.uber.org/zap</title>
<g id="a_clust2"><a xlink:href="/?f=go.uber.org/zap" xlink:title="package: go.uber.org/zap">
<polygon fill="#ffffe0" stroke="#000000" stroke-width=".8" points="322.441,-59.8 322.441,-180.8 414.441,-180.8 414.441,-59.8 322.441,-59.8"/>
<text text-anchor="middle" x="368.441" y="-162.4" font-family="Tahoma bold" font-size="16.00" fill="#000000">zap</text>
</a>
</g>
</g>
<g id="clust3" class="cluster">
<title>cluster_*go.uber.org/zap.Logger</title>
<g id="a_clust3"><a xlink:href="/?f=go.uber.org/zap" xlink:title="type: *go.uber.org/zap.Logger">
<path fill="#eed8ae" stroke="#000000" stroke-width=".5" d="M342.441,-67.8C342.441,-67.8 394.441,-67.8 394.441,-67.8 400.441,-67.8 406.441,-73.8 406.441,-79.8 406.441,-79.8 406.441,-133.8 406.441,-133.8 406.441,-139.8 400.441,-145.8 394.441,-145.8 394.441,-145.8 342.441,-145.8 342.441,-145.8 336.441,-145.8 330.441,-139.8 330.441,-133.8 330.441,-133.8 330.441,-79.8 330.441,-79.8 330.441,-73.8 336.441,-67.8 342.441,-67.8"/>
<text text-anchor="middle" x="368.441" y="-76.3" font-family="Tahoma bold" font-size="15.00" fill="#222222">(*Logger)</text>
</a>
</g>
</g>
<g id="clust4" class="cluster">
<title>cluster_ttms/internal/routing/router</title>
<g id="a_clust4"><a xlink:href="/?f=ttms/internal/routing/router" xlink:title="package: ttms/internal/routing/router">
<polygon fill="#ffffe0" stroke="#000000" stroke-width=".8" points="164.7994,-181.8 164.7994,-260.8 262.807,-260.8 262.807,-181.8 164.7994,-181.8"/>
<text text-anchor="middle" x="213.8032" y="-242.4" font-family="Tahoma bold" font-size="16.00" fill="#000000">router</text>
</a>
</g>
</g>
<g id="clust5" class="cluster">
<title>cluster_ttms/internal/setting</title>
<g id="a_clust5"><a xlink:href="/?f=ttms/internal/setting" xlink:title="package: ttms/internal/setting">
<polygon fill="#ffffe0" stroke="#000000" stroke-width=".8" points="170.8032,-268.8 170.8032,-442.8 256.8032,-442.8 256.8032,-268.8 170.8032,-268.8"/>
<text text-anchor="middle" x="213.8032" y="-424.4" font-family="Tahoma bold" font-size="16.00" fill="#000000">setting</text>
</a>
</g>
</g>
<g id="clust6" class="cluster">
<title>cluster_ttms/internal/setting.auto</title>
<g id="a_clust6"><a xlink:href="/?f=ttms/internal/setting" xlink:title="type: ttms/internal/setting.auto">
<path fill="#eed8ae" stroke="#000000" stroke-width=".5" d="M190.8032,-276.8C190.8032,-276.8 236.8032,-276.8 236.8032,-276.8 242.8032,-276.8 248.8032,-282.8 248.8032,-288.8 248.8032,-288.8 248.8032,-342.8 248.8032,-342.8 248.8032,-348.8 242.8032,-354.8 236.8032,-354.8 236.8032,-354.8 190.8032,-354.8 190.8032,-354.8 184.8032,-354.8 178.8032,-348.8 178.8032,-342.8 178.8032,-342.8 178.8032,-288.8 178.8032,-288.8 178.8032,-282.8 184.8032,-276.8 190.8032,-276.8"/>
<text text-anchor="middle" x="213.8032" y="-285.3" font-family="Tahoma bold" font-size="15.00" fill="#222222">(auto)</text>
</a>
</g>
</g>
<!-- ttms.initSettings -->
<g id="node1" class="node">
<title>ttms.initSettings</title>
<ellipse fill="#add8e6" stroke="#000000" stroke-width=".5" cx="56.5827" cy="-389.8" rx="40.6656" ry="18"/>
<text text-anchor="middle" x="56.5827" y="-385.6" font-family="Verdana" font-size="14.00" fill="#000000">initSettings</text>
</g>
<!-- ttms/internal/setting.AllInit -->
<g id="node7" class="node">
<title>ttms/internal/setting.AllInit</title>
<ellipse fill="#ffe4b5" stroke="#000000" stroke-width="1.5" cx="213.8032" cy="-389.8" rx="27" ry="18"/>
<text text-anchor="middle" x="213.8032" y="-385.6" font-family="Verdana" font-size="14.00" fill="#000000">AllInit</text>
</g>
<!-- ttms.initSettings&#45;&gt;ttms/internal/setting.AllInit -->
<g id="edge1" class="edge">
<title>ttms.initSettings&#45;&gt;ttms/internal/setting.AllInit</title>
<path fill="none" stroke="#8b4513" d="M97.4801,-389.8C121.8908,-389.8 152.6599,-389.8 176.4205,-389.8"/>
<polygon fill="#8b4513" stroke="#8b4513" points="176.4652,-393.3001 186.4652,-389.8 176.4652,-386.3001 176.4652,-393.3001"/>
</g>
<!-- ttms.main -->
<g id="node2" class="node">
<title>ttms.main</title>
<ellipse fill="#add8e6" stroke="#000000" stroke-width=".5" cx="56.5827" cy="-181.8" rx="27" ry="18"/>
<text text-anchor="middle" x="56.5827" y="-177.6" font-family="Verdana" font-size="14.00" fill="#000000">main</text>
</g>
<!-- ttms.main$1 -->
<g id="node3" class="node">
<title>ttms.main$1</title>
<ellipse fill="#add8e6" stroke="#000000" stroke-dasharray="1,5" cx="213.8032" cy="-119.8" rx="28.0306" ry="18"/>
<text text-anchor="middle" x="213.8032" y="-115.6" font-family="Verdana" font-size="14.00" fill="#000000">main$1</text>
</g>
<!-- ttms.main&#45;&gt;ttms.main$1 -->
<g id="edge5" class="edge">
<title>ttms.main&#45;&gt;ttms.main$1</title>
<path fill="none" stroke="#000000" d="M80.1202,-172.518C103.2571,-163.3939 139.1853,-149.2256 167.9706,-137.8741"/>
<polygon fill="#000000" stroke="#000000" points="181.5686,-136.2741 189.5874,-129.3495 179.0006,-129.7621 181.5686,-136.2741"/>
<polyline fill="none" stroke="#000000" points="180.2846,-133.0181 175.6332,-134.8524 "/>
<ellipse fill="none" stroke="#000000" cx="171.9121" cy="-136.3198" rx="4" ry="4"/>
</g>
<!-- (*go.uber.org/zap.Logger).Info -->
<g id="node5" class="node">
<title>(*go.uber.org/zap.Logger).Info</title>
<ellipse fill="#ffe4b5" stroke="#000000" stroke-width="1.5" cx="368.441" cy="-119.8" rx="27" ry="18"/>
<text text-anchor="middle" x="368.441" y="-115.6" font-family="Verdana" font-size="14.00" fill="#000000">Info</text>
</g>
<!-- ttms.main&#45;&gt;(*go.uber.org/zap.Logger).Info -->
<g id="edge3" class="edge">
<title>ttms.main&#45;&gt;(*go.uber.org/zap.Logger).Info</title>
<path fill="none" stroke="#8b4513" d="M83.4919,-178.9411C123.0689,-174.4692 199.1708,-164.8519 262.807,-150.8 287.0252,-145.4522 313.8332,-137.5607 334.3828,-131.0784"/>
<polygon fill="#8b4513" stroke="#8b4513" points="335.4698,-134.4054 343.9292,-128.0267 333.3383,-127.7378 335.4698,-134.4054"/>
</g>
<!-- ttms/internal/routing/router.NewRouter -->
<g id="node6" class="node">
<title>ttms/internal/routing/router.NewRouter</title>
<ellipse fill="#ffe4b5" stroke="#000000" stroke-width="1.5" cx="213.8032" cy="-207.8" rx="41.0075" ry="18"/>
<text text-anchor="middle" x="213.8032" y="-203.6" font-family="Verdana" font-size="14.00" fill="#000000">NewRouter</text>
</g>
<!-- ttms.main&#45;&gt;ttms/internal/routing/router.NewRouter -->
<g id="edge2" class="edge">
<title>ttms.main&#45;&gt;ttms/internal/routing/router.NewRouter</title>
<path fill="none" stroke="#8b4513" d="M82.8979,-186.1518C105.2992,-189.8564 138.0696,-195.2757 165.2175,-199.7653"/>
<polygon fill="#8b4513" stroke="#8b4513" points="164.8766,-203.2563 175.3137,-201.4349 166.0187,-196.3501 164.8766,-203.2563"/>
</g>
<!-- (ttms/internal/setting.auto).Init -->
<g id="node8" class="node">
<title>(ttms/internal/setting.auto).Init</title>
<ellipse fill="#ffe4b5" stroke="#000000" stroke-width="1.5" cx="213.8032" cy="-328.8" rx="27" ry="18"/>
<text text-anchor="middle" x="213.8032" y="-324.6" font-family="Verdana" font-size="14.00" fill="#000000">Init</text>
</g>
<!-- ttms.main&#45;&gt;(ttms/internal/setting.auto).Init -->
<g id="edge6" class="edge">
<title>ttms.main&#45;&gt;(ttms/internal/setting.auto).Init</title>
<path fill="none" stroke="#8b4513" d="M72.5231,-196.7041C100.3025,-222.6777 157.7114,-276.3546 190.1459,-306.6806"/>
<polygon fill="#8b4513" stroke="#8b4513" points="188.1257,-309.5833 197.8207,-313.8564 192.9065,-304.4702 188.1257,-309.5833"/>
</g>
<!-- ttms.main$1&#45;&gt;(*go.uber.org/zap.Logger).Info -->
<g id="edge4" class="edge">
<title>ttms.main$1&#45;&gt;(*go.uber.org/zap.Logger).Info</title>
<path fill="none" stroke="#8b4513" d="M242.1661,-119.8C267.106,-119.8 303.59,-119.8 330.9363,-119.8"/>
<polygon fill="#8b4513" stroke="#8b4513" points="331.295,-123.3001 341.2949,-119.8 331.2949,-116.3001 331.295,-123.3001"/>
</g>
<!-- ttms.gracefulExit -->
<g id="node4" class="node">
<title>ttms.gracefulExit</title>
<ellipse fill="#add8e6" stroke="#000000" stroke-width=".5" cx="213.8032" cy="-58.8" rx="43.776" ry="18"/>
<text text-anchor="middle" x="213.8032" y="-54.6" font-family="Verdana" font-size="14.00" fill="#000000">gracefulExit</text>
</g>
<!-- ttms.gracefulExit&#45;&gt;(*go.uber.org/zap.Logger).Info -->
<g id="edge7" class="edge">
<title>ttms.gracefulExit&#45;&gt;(*go.uber.org/zap.Logger).Info</title>
<path fill="none" stroke="#8b4513" d="M245.4696,-71.2915C271.6392,-81.6146 308.6796,-96.2259 335.2581,-106.7103"/>
<polygon fill="#8b4513" stroke="#8b4513" points="334.301,-110.0952 344.8878,-110.509 336.8698,-103.5836 334.301,-110.0952"/>
</g>
</g>
</svg>
